<svg id="Layer_1" data-name="Layer 1" xmlns="http://www.w3.org/2000/svg" xmlns:xlink="http://www.w3.org/1999/xlink" viewBox="0 0 125.67 125.67"><defs><style>.cls-1{fill:url(#linear-gradient);}.cls-2{fill:#f7dece;}.cls-3{fill:#c1694f;}.cls-4{fill:#662113;}.cls-5{fill:#319966;}.cls-6{fill:#ff9494;}</style><linearGradient id="linear-gradient" x1="63.57" y1="128" x2="63.57" y2="2.33" gradientTransform="matrix(1, 0, 0, -1, -0.73, 128)" gradientUnits="userSpaceOnUse"><stop offset="0" stop-color="#afc1dc"/><stop offset="1" stop-color="#e2e5ed"/></linearGradient></defs><title>Dermatologist</title><circle class="cls-1" cx="62.83" cy="62.83" r="62.83"/><path class="cls-2" d="M78.73,46.33C67.42,46.33,43,43.38,43,43.38s-4.89,5.39-7.72,8.21C30,56.86,30.42,63.53,29.72,71.85c.87,23.11,15.67,41.53,33.85,41.53S96.39,95.17,97.41,72.23C96.41,62,89.5,46.33,78.73,46.33Z" transform="translate(-0.73)"/><path class="cls-3" d="M63.57,102.07c-6.63,0-10.11-3.28-10.48-3.66a2.8,2.8,0,0,1-.84-2,2.85,2.85,0,0,1,.81-2,2.88,2.88,0,0,1,2-.84,2.82,2.82,0,0,1,2,.82,9.88,9.88,0,0,0,6.51,2c4.3,0,6.43-2,6.52-2a2.83,2.83,0,0,1,4,4C73.68,98.79,70.21,102.07,63.57,102.07ZM66.4,87.93H60.75a2.83,2.83,0,0,1,0-5.66H66.4a2.83,2.83,0,0,1,0,5.66Z" transform="translate(-0.73)"/><path class="cls-4" d="M49.43,76.62a2.82,2.82,0,0,1-2.82-2.83V68.13a2.83,2.83,0,0,1,5.65,0v5.66a2.83,2.83,0,0,1-2.83,2.83Zm28.28,0a2.82,2.82,0,0,1-2.82-2.83V68.13a2.83,2.83,0,0,1,5.65,0v5.66a2.83,2.83,0,0,1-2.83,2.83Z" transform="translate(-0.73)"/><path class="cls-5" d="M63.57,23.12c23.2,0,37.7,17.12,37.7,31.39s-2.91,20-5.8,14.26a130.76,130.76,0,0,1-5.8-14.24s-9.84,6.38-17.55-2.88c0,0,3,17.12-14.35,0,0,0,2.9,11.42-14.5-2.85,0,0-8.7,5.71-11.6,20-.81,4-5.8,0-5.8-14.26S37.46,23.12,63.57,23.12Z" transform="translate(-0.73)"/><circle class="cls-6" cx="78.99" cy="87.75" r="1.08"/><circle class="cls-6" cx="80.61" cy="90.44" r="0.54"/><circle class="cls-6" cx="78.45" cy="93.67" r="1.62"/><circle class="cls-6" cx="83.3" cy="94.21" r="1.08"/><circle class="cls-6" cx="85.99" cy="90.44" r="1.62"/></svg>