<svg id="Layer_1" data-name="Layer 1" xmlns="http://www.w3.org/2000/svg" xmlns:xlink="http://www.w3.org/1999/xlink" viewBox="0 0 125.67 125.67"><defs><style>.cls-1{fill:#fff;}.cls-2{fill:#f7dece;}.cls-3{fill:url(#linear-gradient);}.cls-4{mask:url(#mask);}.cls-5{fill:#1aa77e;}</style><linearGradient id="linear-gradient" x1="63.17" y1="128" x2="63.17" y2="2.33" gradientTransform="matrix(1, 0, 0, -1, -0.34, 128)" gradientUnits="userSpaceOnUse"><stop offset="0" stop-color="#afc1dc"/><stop offset="1" stop-color="#e2e5ed"/></linearGradient><mask id="mask" x="29.35" y="23.01" width="67.26" height="83.19" maskUnits="userSpaceOnUse"><g transform="translate(-0.34)"><g id="mask0_4741_2378" data-name="mask0 4741 2378"><path class="cls-1" d="M64.58,87.62a2.37,2.37,0,0,0-.93-2,5.77,5.77,0,0,1-1.17-1.14,5.54,5.54,0,0,1-.82-1.61,7.35,7.35,0,0,1-.24-1c-.06-.37-.09-.72-.12-1.06s0-.77,0-1.13,0-.64,0-.94V65.59a5,5,0,0,0-1.57-3.76c-2.64-2.64-6.69-1.62-6.94-1.7l-9.18,2.24a21,21,0,0,0,9.75,7.3v3.42c-13.7,3.85-23.65,15.71-23.65,32.44h22v-2a22.35,22.35,0,0,1,.16-2.82,12.8,12.8,0,0,1,.52-2.38A8.77,8.77,0,0,1,53,97a7.07,7.07,0,0,1,1.1-1.54,6.68,6.68,0,0,1,4.64-2.28C62.89,93.18,64.58,91,64.58,87.62Z"/><path class="cls-2" d="M71.9,72.73V67.67c3.86-2.44,7.63-9.84,7.63-18.76V43.1a21.11,21.11,0,0,0-42.2.77l-4.64,6.36a1.46,1.46,0,0,0-.26,1.63,1.82,1.82,0,0,0,1.49.78l3.82.58.36,3.62,17.2.06c10.06,0,9.5,2.74,9.5,8.69V76.36c0,.32,0,.64,0,.94s0,.71,0,1a2.76,2.76,0,0,0,.71,1.46,1.69,1.69,0,0,0,.19.19,1.89,1.89,0,0,0,.33.21,2.82,2.82,0,0,0,.59.25,6.27,6.27,0,0,0,1,.22,10.62,10.62,0,0,0,1.11.1,8.41,8.41,0,0,1,2.4.2c5.55,1.27,9.47,10,3.92,16.75s-13.66,4.41-17,2.48c-.8-.47-2.2-1.21-2.46-.19a10.5,10.5,0,0,0-.25,1.46c-.06.63-.1,1.34-.1,2.12v2H96.94C96.94,88.23,86.31,76.15,71.9,72.73Z"/></g></g></mask></defs><title>Gastroenterologist</title><circle class="cls-3" cx="62.83" cy="62.83" r="62.83"/><path class="cls-2" d="M64.58,87.62a2.37,2.37,0,0,0-.93-2,5.52,5.52,0,0,1-1.17-1.14,5.54,5.54,0,0,1-.82-1.61,6.08,6.08,0,0,1-.24-1,10.43,10.43,0,0,1-.12-1.06c0-.39,0-.77,0-1.13V65.59a5,5,0,0,0-1.57-3.76c-2.64-2.64-6.7-1.62-6.94-1.7l-9.18,2.24a21,21,0,0,0,9.75,7.3v3.42c-13.7,3.85-23.65,15.71-23.65,32.44h22v-2a22.35,22.35,0,0,1,.16-2.82,13.67,13.67,0,0,1,.51-2.38A8.8,8.8,0,0,1,53,97a7.38,7.38,0,0,1,1.09-1.54,6.74,6.74,0,0,1,4.65-2.28C62.89,93.18,64.58,91,64.58,87.62Z" transform="translate(-0.34)"/><path class="cls-2" d="M71.89,72.73V67.67c3.87-2.44,7.64-9.84,7.64-18.76V43.1a21.11,21.11,0,0,0-42.2.77l-4.64,6.36a1.46,1.46,0,0,0-.26,1.63,1.81,1.81,0,0,0,1.49.78l3.82.58.36,3.62,17.2.06c10.06,0,9.5,2.74,9.5,8.69V76.36c0,.32,0,.64,0,.94s0,.71,0,1a2.69,2.69,0,0,0,.71,1.46,1.69,1.69,0,0,0,.19.19,1.57,1.57,0,0,0,.33.21,3,3,0,0,0,.58.25,6.66,6.66,0,0,0,1,.22,10.66,10.66,0,0,0,1.1.1,8.45,8.45,0,0,1,2.41.2c5.55,1.27,9.47,10,3.91,16.75s-13.65,4.41-17,2.48c-.8-.47-2.2-1.21-2.47-.19a12.35,12.35,0,0,0-.24,1.46c-.06.63-.1,1.34-.1,2.12v2H96.94C96.94,88.23,86.31,76.15,71.89,72.73Z" transform="translate(-0.34)"/><g class="cls-4"><rect class="cls-5" x="29.35" y="72.57" width="67.26" height="33.63"/></g></svg>