<svg id="Layer_1" data-name="Layer 1" xmlns="http://www.w3.org/2000/svg" xmlns:xlink="http://www.w3.org/1999/xlink" viewBox="0 0 125.67 125.67"><defs><style>.cls-1{fill:url(#linear-gradient);}.cls-2{fill:#f7dece;}.cls-3{fill:#319966;}</style><linearGradient id="linear-gradient" x1="62.83" y1="128" x2="62.83" y2="2.33" gradientTransform="matrix(1, 0, 0, -1, 0, 128)" gradientUnits="userSpaceOnUse"><stop offset="0" stop-color="#afc1dc"/><stop offset="1" stop-color="#e2e5ed"/></linearGradient></defs><title>General_physician</title><circle class="cls-1" cx="62.83" cy="62.83" r="62.83"/><path class="cls-2" d="M47.25,48.23l.54,0a1.22,1.22,0,0,0,.54-.21h0a56.73,56.73,0,0,0,1.93,5.6,55.49,55.49,0,0,0,3.13,6.7l-.16-.3c-.09,1.4-.2,2.84-.35,4.23a10.2,10.2,0,0,1-.49,2.41l0-.07s-.12,8-.12,8A11,11,0,0,0,60.75,85.3h.08a1.47,1.47,0,0,1,1.37-.94h2.21a1.49,1.49,0,0,1,1.37.93h0a11.07,11.07,0,0,0,8.58-10.73s-.14-8-.21-8a12.58,12.58,0,0,1-.47-2.28v-.06c-.14-1.4-.22-2.81-.35-4.24a54.2,54.2,0,0,0,2.82-6l.15-.41c.79-2,1.4-3.82,1.94-5.61a1.18,1.18,0,0,0,.53.21h0l.54,0a1.24,1.24,0,0,0,1.28-1.3l.59-7.43h0a1.23,1.23,0,0,0-1.08-1.22h-.07a26.73,26.73,0,0,0,.24-3.6,27.38,27.38,0,0,0-1.17-7.94l0,.19a16.43,16.43,0,0,0-11.93-9.4h-.1a22.06,22.06,0,0,0-3.82-.43h-.08a20.94,20.94,0,0,0-4,.45l.14,0a16.53,16.53,0,0,0-12,9.31l0,.1a26.26,26.26,0,0,0-1.13,7.72,27.54,27.54,0,0,0,.26,3.77l0-.14a1.21,1.21,0,0,0-1.08,1.2v0L46,46.94c.06.86.64,1.37,1.27,1.3Z"/><path class="cls-3" d="M104.55,97.42c-.27-11.7-1.44-14.35-2.07-16.14-.25-.72-.46-5.58-8.49-8.74-4.93-1.94-11.29-2-16.67-4.25v6.32A14,14,0,0,1,66,88.32H65.9a1.48,1.48,0,0,1-1.44,1.23h-.07v4.78a8.45,8.45,0,0,0,16.89,0V91a4.79,4.79,0,1,1,2.26-.21h0v3.72a10.68,10.68,0,0,1-21.35,0v-.2h0V89.52a1.48,1.48,0,0,1-1.35-1.23h0A14,14,0,0,1,49.44,74.6V68.22c-5.4,2.32-11.8,2.37-16.75,4.31-8.06,3.15-8.25,8-8.5,8.74-.61,1.8-1.8,4.44-2.07,16.14,0,1.54,0,3.9,4.65,6,10.1,4,23.12,5.19,36,6.08H64c12.86-.88,25.87-2.11,36-6.08C104.55,101.32,104.59,99,104.55,97.42ZM48,92.65H43.25v4.81H39.82v-4.8H35V89.24h4.79v-4.8h3.43v4.8H48Z"/><path d="M84.57,86.21A2.59,2.59,0,1,0,82,88.79,2.6,2.6,0,0,0,84.57,86.21Z"/></svg>