<svg id="Layer_1" data-name="Layer 1" xmlns="http://www.w3.org/2000/svg" xmlns:xlink="http://www.w3.org/1999/xlink" viewBox="0 0 125.67 130.7"><defs><style>.cls-1{fill:url(#linear-gradient);}.cls-2{mask:url(#mask);}.cls-3{fill:#319966;}.cls-4{fill:#084927;}.cls-5{fill:#eec2ad;}.cls-6{fill:#f7dece;}.cls-7{fill:#e0aa94;}.cls-8{fill:#292f33;}.cls-9{fill:#bf6952;}.cls-10{fill:#662113;}.cls-11{fill:#df1f32;}</style><linearGradient id="linear-gradient" x1="63.7" y1="128" x2="63.7" y2="2.33" gradientTransform="matrix(1, 0, 0, -1, 0, 128)" gradientUnits="userSpaceOnUse"><stop offset="0" stop-color="#afc1dc"/><stop offset="1" stop-color="#e2e5ed"/></linearGradient><mask id="mask" x="0" y="0" width="125.67" height="130.7" maskUnits="userSpaceOnUse"><g transform="translate(-0.87)"><g id="mask0_4741_2340" data-name="mask0 4741 2340"><circle class="cls-1" cx="63.7" cy="62.83" r="62.83"/></g></g></mask></defs><title>Gynecologist</title><circle class="cls-1" cx="62.83" cy="62.83" r="62.83"/><g class="cls-2"><path class="cls-3" d="M77.67,65.89h-13A9.9,9.9,0,0,0,55,75.61V130.7H86.06V104.58l1.33-5.11V75.61A9.9,9.9,0,0,0,77.67,65.89Z" transform="translate(-0.87)"/><path class="cls-4" d="M65.65,73.83a13.12,13.12,0,1,0,0,26.24Z" transform="translate(-0.87)"/><path class="cls-3" d="M65.65,76.74a10.21,10.21,0,1,0,0,20.42Z" transform="translate(-0.87)"/><path class="cls-4" d="M71.48,73.83a13.12,13.12,0,1,0,0,26.24Z" transform="translate(-0.87)"/><path class="cls-3" d="M71.48,76.74a10.21,10.21,0,0,0,0,20.42Z" transform="translate(-0.87)"/><path class="cls-4" d="M47.61,130.7H68.47V89.14a23.92,23.92,0,0,0-4-.37A24.32,24.32,0,0,0,47.61,130.7Z" transform="translate(-0.87)"/><path class="cls-3" d="M68,78.7V91.8a21,21,0,0,0-3.54-.32A21.62,21.62,0,0,0,51.83,130.7H83V70.42Z" transform="translate(-0.87)"/><path class="cls-4" d="M84.43,72.37,98.57,87.28l-12.5,13.16v8.88l-11.49,7.8-7.7-12.07,16.46-17-5.65-5.6Z" transform="translate(-0.87)"/><path class="cls-3" d="M84.42,68.72l15.94,16.61s5.53,4.45,0,9.72C97,98.21,76.22,112.22,76.22,112.22l-6.48-6.48L87.4,88.57l-9.73-9.72Z" transform="translate(-0.87)"/><path class="cls-5" d="M72.45,106a9.49,9.49,0,0,0-9.4.41c-1.43.84-2,2.42.18,2.94S72.45,106,72.45,106Z" transform="translate(-0.87)"/><path class="cls-6" d="M76.87,111.59c.4,5.15-6.5,10-11.73,9.33-3.74-.45-7-10.52-2.56-11.82,4-1.16,5-4.75,9.75-3.41C76.05,106.76,76.72,109.61,76.87,111.59Z" transform="translate(-0.87)"/><path class="cls-7" d="M73.41,113.58l-.62-1.29a14.2,14.2,0,0,1-5.38,4.64,10.63,10.63,0,0,1-5.41.89,4.05,4.05,0,0,0,1,1.55C66.3,119.48,71.51,117.74,73.41,113.58Zm-6.47-.11a10.71,10.71,0,0,0,3.73-3.87l-.94-1.19s-3.34,5.18-9.27,4.91a5.57,5.57,0,0,0,.2,1.6A10.88,10.88,0,0,0,66.94,113.47Z" transform="translate(-0.87)"/><path class="cls-8" d="M58.57,39.73a8,8,0,0,1,.62,3,8,8,0,0,1-2.28,5.59,7.86,7.86,0,0,1-11.15,0,7.75,7.75,0,0,1-1.7-2.56,7.84,7.84,0,0,1,0-6,7.75,7.75,0,0,1,1.7-2.56,7.84,7.84,0,0,1,11.14,0A7.75,7.75,0,0,1,58.57,39.73Z" transform="translate(-0.87)"/><path class="cls-6" d="M74.35,60.11c3.51-4.18,5.6-9.53,3.8-13.85l-3-7.17c-16.08,6.06-22.7-2.25-22.7-2.25s3.15,7.57-3.61,11.43l3.6,8.66c2.94,7.07,6.94,12.13,14,9.23l.24,1c.6,2.38.16,4.31,3.67,4.44,2.46.1,5.77-4.28,5.17-6.67Z" transform="translate(-0.87)"/><path class="cls-8" d="M93.09,41.49c2.41-6.43-3.38-11.31-8.3-11.81a7.52,7.52,0,0,0-7,3.88c-6-10-14.93-7.65-20.62-5.65-6,2.12-15,8.37-11.49,15.08S61,46.81,61,46.81l4.26,6.86c-1.15-5.9,2.77-7.22,4.58-5.93s.64,5.7,1.51,7.42,3.88,4.06,3.88,4.06c1.85-2.35,7.68-10.43,5-20.22a5.65,5.65,0,0,1,4.2.58c3.47,1.8.73,10.8,5.57,13.64,4.63,2.73,7.35-1,7.35-1C92.52,52.35,90.8,47.63,93.09,41.49Z" transform="translate(-0.87)"/><path class="cls-9" d="M55,60.06l-.9.38a.73.73,0,0,1-.3.06.63.63,0,0,1-.3,0,.85.85,0,0,1-.25-.17.7.7,0,0,1-.17-.25.8.8,0,0,1-.06-.3.77.77,0,0,1,.06-.3.78.78,0,0,1,.43-.42l.9-.37a.79.79,0,0,1,.3-.08.81.81,0,0,1,.31.06.8.8,0,0,1,.26.16.9.9,0,0,1,.17.26.81.81,0,0,1,.06.31.8.8,0,0,1-.06.3,1.14,1.14,0,0,1-.18.25A.74.74,0,0,1,55,60.06Z" transform="translate(-0.87)"/><path class="cls-10" d="M55.42,54a1.51,1.51,0,0,1-1.18,0,1.47,1.47,0,0,1-.83-.83l-.6-1.43a1.54,1.54,0,0,1,0-1.19,1.47,1.47,0,0,1,.83-.83,1.54,1.54,0,0,1,2,.83L56.26,52a1.54,1.54,0,0,1,0,1.19,1.81,1.81,0,0,1-.33.5A1.54,1.54,0,0,1,55.42,54Z" transform="translate(-0.87)"/><path class="cls-11" d="M56.21,63.57a10.53,10.53,0,0,0,2.32,2.13,6.21,6.21,0,0,0,3.29-4.47L56.35,63.5Z" transform="translate(-0.87)"/></g></svg>