<svg id="Layer_1" data-name="Layer 1" xmlns="http://www.w3.org/2000/svg" xmlns:xlink="http://www.w3.org/1999/xlink" viewBox="0 0 125.66 125.67"><defs><style>.cls-1{fill:url(#linear-gradient);}.cls-2{fill:#319966;}.cls-3{fill:#bccbe1;}.cls-4{fill:#f7dece;}.cls-5{fill:#c0cde2;}</style><linearGradient id="linear-gradient" x1="63.3" y1="128" x2="63.3" y2="2.33" gradientTransform="matrix(1, 0, 0, -1, -0.47, 128)" gradientUnits="userSpaceOnUse"><stop offset="0" stop-color="#afc1dc"/><stop offset="1" stop-color="#e2e5ed"/></linearGradient></defs><title>Neurologist</title><circle class="cls-1" cx="62.83" cy="62.83" r="62.83"/><circle class="cls-2" cx="65.85" cy="54.79" r="26.64"/><path class="cls-3" d="M72.88,57.51a7.75,7.75,0,0,1-3.33-.67A6.11,6.11,0,0,1,66.3,53a4.06,4.06,0,0,1-.16-1,.73.73,0,1,0-1.46,0,4.76,4.76,0,0,0,.09.87,7.59,7.59,0,0,0,.67,1.87A7.39,7.39,0,0,0,68,57.65a7.82,7.82,0,0,0,1,.54,5.13,5.13,0,0,1,.14,1.19A5,5,0,0,1,69,60.6a4,4,0,0,1-.59,1.29.73.73,0,0,0,1.2.83A5.6,5.6,0,0,0,70.39,61a6.28,6.28,0,0,0,.2-1.59c0-.24,0-.46,0-.67a9.8,9.8,0,0,0,2.32.26.73.73,0,0,0,0-1.46Z" transform="translate(-0.47)"/><path class="cls-3" d="M76.12,48.1a.73.73,0,0,0-.72,1.27,3,3,0,0,1,1.09,1,7.17,7.17,0,0,1-2.4.45,5,5,0,0,1-2.6-.69,6,6,0,0,1-1.72-1.58A9,9,0,0,0,67,46.06a7.51,7.51,0,0,0-3.74-1,7.73,7.73,0,0,0-3.7,1,6.49,6.49,0,0,0-1.34,1,11.06,11.06,0,0,1-3.94.8A7.73,7.73,0,0,1,50.75,47a6.16,6.16,0,0,1-.88-.57l-.21-.18,0,0h0a.74.74,0,0,0-1,0,.73.73,0,0,0,0,1,6.15,6.15,0,0,0,1.51,1.07,8.66,8.66,0,0,0,1.53.62,9.91,9.91,0,0,0-.61,1,11.31,11.31,0,0,0-1.24,3.24.73.73,0,0,0,.57.86.72.72,0,0,0,.86-.57,10,10,0,0,1,1.08-2.81,8.83,8.83,0,0,1,.52-.82l.15-.21,0,0h0a.82.82,0,0,0,.14-.28,8.76,8.76,0,0,0,1.18.08,11.26,11.26,0,0,0,2.52-.3,6.79,6.79,0,0,0-.64,2.91,5.75,5.75,0,0,0,.5,2.45A.73.73,0,1,0,58,53.69a4.36,4.36,0,0,1-.36-1.83,5.37,5.37,0,0,1,.59-2.48,4.8,4.8,0,0,1,2.05-2.07,6.15,6.15,0,0,1,3-.82,6,6,0,0,1,3,.84,7.68,7.68,0,0,1,2.31,2.08,7.23,7.23,0,0,0,2.15,2,6.43,6.43,0,0,0,3.34.89,8.74,8.74,0,0,0,2.79-.49v.05a4.37,4.37,0,0,1-.11.92c0,.11-.06.2-.08.26s0,0,0,.06h0a.72.72,0,0,0,.4.94.74.74,0,0,0,1-.4,5.29,5.29,0,0,0,.31-1.8,4.14,4.14,0,0,0-2.22-3.74Z" transform="translate(-0.47)"/><path class="cls-3" d="M57.35,42.63a5,5,0,0,1,2-1.37A7.13,7.13,0,0,1,62,40.79a5.3,5.3,0,0,1,2.16.41.73.73,0,1,0,.62-1.32A6.64,6.64,0,0,0,62,39.33a8.59,8.59,0,0,0-3.1.57,6.47,6.47,0,0,0-2.62,1.79.74.74,0,0,0,.08,1A.73.73,0,0,0,57.35,42.63Z" transform="translate(-0.47)"/><path class="cls-4" d="M68.65,23.2c-18-1.11-33.19,10.22-32.85,28.69v1.67L28,67.39a2.67,2.67,0,0,0-.1,2.43,2.62,2.62,0,0,0,1.9,1.5l4.84,1.34,1.52,14.66a5,5,0,0,0,5.61,4.88l3.87.31a2.63,2.63,0,0,1,2.07.66,2.7,2.7,0,0,1,.89,2v11.52H81.25V98.86c0-2.23.77-7.32,2.22-9.65,5.3-8.48,13.93-13,15.39-30.36S89.94,24.51,68.65,23.2ZM90.4,53a4.62,4.62,0,0,1-3.21,2.19.73.73,0,1,0,.25,1.44,6.87,6.87,0,0,0,.87-.21,4.65,4.65,0,0,1,.47,2,4.8,4.8,0,0,1-.51,2.13,4.67,4.67,0,0,1-1.49,1.71,4.6,4.6,0,0,1-2.68.85h-.22c0-.12,0-.24,0-.36h0a6.25,6.25,0,0,0-.94-2.3l-.06-.08-.07-.06a13.18,13.18,0,0,1-1.86-2,8.19,8.19,0,0,1-.69-1.16,2.36,2.36,0,0,1-.24-.85.42.42,0,0,1,0-.18.21.21,0,0,1,.06-.08.74.74,0,0,0-1-1,1.63,1.63,0,0,0-.39.62,1.81,1.81,0,0,0-.12.68,3.58,3.58,0,0,0,.37,1.46,9.82,9.82,0,0,0,1.34,2.06,13.3,13.3,0,0,0,1.5,1.56A4.84,4.84,0,0,1,82.4,63a5.12,5.12,0,0,1,.07.77h0s0,.07,0,.1a4.69,4.69,0,0,1-3.83,4.61,5.21,5.21,0,0,1-.87.08,4.71,4.71,0,0,1-3.85-2,6.12,6.12,0,0,0,1.16-1.65h0a6.09,6.09,0,0,0,.61-2.4.73.73,0,1,0-1.46-.07,4.89,4.89,0,0,1-.46,1.84h0a4.65,4.65,0,0,1-1.24,1.59h0a4.73,4.73,0,0,1-5,.6,4.69,4.69,0,0,1-2.44-2.83h0a4.76,4.76,0,0,1,.25-3.44A.73.73,0,1,0,64,59.58a6.07,6.07,0,0,0-.62,2.67,6.87,6.87,0,0,0,.14,1.28,4.67,4.67,0,0,1-1.91.56h0l-.33,0a4.72,4.72,0,0,1-4.46-3.24,6.15,6.15,0,0,0,1.26-1.76.73.73,0,0,0-1.33-.62,4.68,4.68,0,0,1-3.91,2.68h-.33a4.7,4.7,0,0,1-4.64-4h0c0-.11,0-.23,0-.35s0-.22,0-.34a4.91,4.91,0,0,1,.08-.86.73.73,0,0,0-.59-.85.72.72,0,0,0-.85.58,6.09,6.09,0,0,0-.1,1.13v.05a4.92,4.92,0,0,1-1.87-.62,4.7,4.7,0,0,1-1.76-1.83,4.64,4.64,0,0,1-.55-2.21,4.75,4.75,0,0,1,.85-2.7,6.36,6.36,0,0,0,.72.85,6.2,6.2,0,0,0,2.09,1.35A.73.73,0,0,0,46.38,50a4.6,4.6,0,0,1-1.59-1h0a4.7,4.7,0,0,1-1.41-3.36,4.66,4.66,0,0,1,4-4.64h0a4.6,4.6,0,0,1,.64,0,4.71,4.71,0,0,1,3.28,1.34.73.73,0,1,0,1-1,6.12,6.12,0,0,0-4.18-1.75,4.69,4.69,0,0,1,1-1.9A4.62,4.62,0,0,1,51.7,36a4.7,4.7,0,0,1,1-.12,4.57,4.57,0,0,1,1.76.35A6,6,0,0,0,54.26,38a.73.73,0,0,0,1.46,0,5,5,0,0,1,.36-1.81,4.7,4.7,0,0,1,4.34-2.89A4.69,4.69,0,0,1,65.11,38a.73.73,0,0,0,1.46,0,6.12,6.12,0,0,0-1.17-3.62,4.63,4.63,0,0,1,3.8-2,4.72,4.72,0,0,1,4.38,3h0a4.64,4.64,0,0,1,.31,1.68.73.73,0,0,0,1.46,0,6.2,6.2,0,0,0-.25-1.74,4.69,4.69,0,0,1,5.05-.88,4.61,4.61,0,0,1,2,1.65A4.79,4.79,0,0,1,83,38.51c0,.09,0,.18,0,.27a4.66,4.66,0,0,1-.39,1.85.73.73,0,0,0,1.35.58,6.35,6.35,0,0,0,.48-1.94,4.74,4.74,0,0,1,2,.64,4.49,4.49,0,0,1,1.72,1.81,4.48,4.48,0,0,1,.42,3.1,6.58,6.58,0,0,0-1.35-.36.75.75,0,0,0-.83.63.72.72,0,0,0,.62.82,5.09,5.09,0,0,1,1.35.4.74.74,0,0,0,.33.3.92.92,0,0,0,.28,0,4.82,4.82,0,0,1,.73.61h0A4.68,4.68,0,0,1,90.4,53Z" transform="translate(-0.47)"/><path class="cls-5" d="M82.81,46.53a4.94,4.94,0,0,0-1.17-.75,3.23,3.23,0,0,0-1.29-.29.73.73,0,1,0,0,1.46,2,2,0,0,1,1,.3,4.37,4.37,0,0,1,1.49,1.55,4.66,4.66,0,0,1,.67,2.36A4.47,4.47,0,0,1,82.38,54a.74.74,0,0,0,.1,1,.73.73,0,0,0,1-.1,5.83,5.83,0,0,0,1-6A6.42,6.42,0,0,0,82.81,46.53Z" transform="translate(-0.47)"/><path class="cls-3" d="M77.75,43.22A7.16,7.16,0,0,1,73,41.51,5.48,5.48,0,0,1,71.75,40a3,3,0,0,1-.42-1.38.73.73,0,0,0-1.46,0,4.56,4.56,0,0,0,.59,2.08,7.26,7.26,0,0,0,1.68,2,6.65,6.65,0,0,1-2.92,2.37.73.73,0,0,0,.49,1.37,7.34,7.34,0,0,0,2.94-2,9.24,9.24,0,0,0,.69-.86,8.75,8.75,0,0,0,4.41,1.16.73.73,0,1,0,0-1.46Z" transform="translate(-0.47)"/></svg>