<svg id="Layer_1" data-name="Layer 1" xmlns="http://www.w3.org/2000/svg" xmlns:xlink="http://www.w3.org/1999/xlink" viewBox="0 0 125.66 125.67"><defs><style>.cls-1{fill:url(#linear-gradient);}.cls-2{fill:#edc391;}.cls-3{fill:#f7dece;}.cls-4{fill:#312d2d;}.cls-5{fill:#319966;}.cls-6{fill:#dba689;}.cls-7{fill:#444;}</style><linearGradient id="linear-gradient" x1="63.43" y1="128" x2="63.43" y2="2.33" gradientTransform="matrix(1, 0, 0, -1, -0.6, 128)" gradientUnits="userSpaceOnUse"><stop offset="0" stop-color="#afc1dc"/><stop offset="1" stop-color="#e2e5ed"/></linearGradient></defs><title>Pediatricians</title><circle class="cls-1" cx="62.83" cy="62.83" r="62.83"/><path class="cls-2" d="M91.65,69.91H36.54a10.41,10.41,0,1,0,0,20.8H91.65a10.41,10.41,0,1,0,0-20.8Z" transform="translate(-0.6)"/><path class="cls-3" d="M93.43,43.46C86.34,32.68,77.19,29,63.91,29S41.49,32.67,34.4,43.46C29.21,51.37,28,63.8,29.56,76.61c1.54,12.31,2.82,19.07,10.46,26,6.64,6,15.65,7.28,23.39,7.28h1c7.74,0,16.76-1.29,23.39-7.28,7.64-6.9,8.92-13.66,10.46-26C99.87,63.8,98.62,51.36,93.43,43.46Z" transform="translate(-0.6)"/><path class="cls-4" d="M74.9,44.64l.31-.32.23-.25c.17-.2.33-.4.48-.61l.07-.09a6.65,6.65,0,0,0,.41-.62,1.74,1.74,0,0,0,.11-.18c.13-.22.25-.43.37-.66a.31.31,0,0,0,.05-.1A11.84,11.84,0,0,0,77.66,40l0-.07a14.85,14.85,0,0,0,.64-4.39,11.2,11.2,0,0,0-3-7.82l0-.06c-.14-.15-.29-.3-.44-.44l-.09-.09c-.17-.17-.34-.32-.53-.48l-.44-.36-.1-.08-.49-.35-.08-.05a13.49,13.49,0,0,0-1.84-1.06l-.07,0-.55-.25-.17-.07L70,24.23l-.19-.07L69.36,24l-.2-.07-.46-.14-.21-.06L68,23.62l-.19-.05-.5-.11-.16,0a11.52,11.52,0,0,0-1.31-.21l-.17,0c-.16,0-.3,0-.46,0l-.26,0h-.92c-.32,0-.63,0-.94,0h-.18c-.32,0-.63.06-.92.11a15.43,15.43,0,0,0-8.38,4.36,7.71,7.71,0,0,0-2,3h0a45.82,45.82,0,0,1,8.76-1.3C65,29,68.78,31.63,68.6,35.63A9.21,9.21,0,0,1,68.43,37l0,.12c0,.16-.08.33-.12.48a.9.9,0,0,0-.06.22l-.14.39a2.72,2.72,0,0,1-.11.25q-.08.18-.15.33a2,2,0,0,1-.14.25,2.61,2.61,0,0,1-.17.28c-.06.09-.13.18-.18.27l-.17.22a3.18,3.18,0,0,1-.3.33l-.09.1c-.14.14-.29.26-.44.39l-.1.06a3.89,3.89,0,0,1-.39.28l-.12.07-.4.22-.13.06-.44.19-.1,0-.52.18h0a8.83,8.83,0,0,1-2.53.34,10.94,10.94,0,0,1-6.91-2.37.69.69,0,0,0-.47-.18l-.1,0-.1,0-.13.05a.72.72,0,0,0-.2.14l0,0a1.1,1.1,0,0,0-.14.21,0,0,0,0,1,0,0,.61.61,0,0,0,0,.33c.22,2.23,1.62,5,5,7.11s9.85,2,14.6-1.23l.14-.09.42-.31.19-.15c.21-.16.4-.33.6-.51l.28-.26A1.8,1.8,0,0,0,74.9,44.64Z" transform="translate(-0.6)"/><path class="cls-5" d="M74.9,44.64l.31-.32.23-.25c.17-.2.33-.4.48-.61l.07-.09a6.65,6.65,0,0,0,.41-.62,1.74,1.74,0,0,0,.11-.18c.13-.22.25-.43.37-.66a.31.31,0,0,0,.05-.1A11.84,11.84,0,0,0,77.66,40l0-.07a14.85,14.85,0,0,0,.64-4.39,11.2,11.2,0,0,0-3-7.82l0-.06c-.14-.15-.29-.3-.44-.44l-.09-.09c-.17-.17-.34-.32-.53-.48l-.44-.36-.1-.08-.49-.35-.08-.05a13.49,13.49,0,0,0-1.84-1.06l-.07,0-.55-.25-.17-.07L70,24.23l-.19-.07L69.36,24l-.2-.07-.46-.14-.21-.06L68,23.62l-.19-.05-.5-.11-.16,0a11.52,11.52,0,0,0-1.31-.21l-.17,0c-.16,0-.3,0-.46,0l-.26,0h-.92c-.32,0-.63,0-.94,0h-.18c-.32,0-.63.06-.92.11a15.43,15.43,0,0,0-8.38,4.36,7.71,7.71,0,0,0-2,3h0a45.82,45.82,0,0,1,8.76-1.3C65,29,68.78,31.63,68.6,35.63A9.21,9.21,0,0,1,68.43,37l0,.12c0,.16-.08.33-.12.48a.9.9,0,0,0-.06.22l-.14.39a2.72,2.72,0,0,1-.11.25q-.08.18-.15.33a2,2,0,0,1-.14.25,2.61,2.61,0,0,1-.17.28c-.06.09-.13.18-.18.27l-.17.22a3.18,3.18,0,0,1-.3.33l-.09.1c-.14.14-.29.26-.44.39l-.1.06a3.89,3.89,0,0,1-.39.28l-.12.07-.4.22-.13.06-.44.19-.1,0-.52.18h0a8.83,8.83,0,0,1-2.53.34,10.94,10.94,0,0,1-6.91-2.37.69.69,0,0,0-.47-.18l-.1,0-.1,0-.13.05a.72.72,0,0,0-.2.14l0,0a1.1,1.1,0,0,0-.14.21,0,0,0,0,1,0,0,.61.61,0,0,0,0,.33c.22,2.23,1.62,5,5,7.11s9.85,2,14.6-1.23l.14-.09.42-.31.19-.15c.21-.16.4-.33.6-.51l.28-.26A1.8,1.8,0,0,0,74.9,44.64Z" transform="translate(-0.6)"/><path class="cls-6" d="M67.94,80.29a1.77,1.77,0,0,0-.31-.08H60.77a1.57,1.57,0,0,0-.31.08,1.17,1.17,0,0,0-.68,1.58,5,5,0,0,0,8.83,0A1.16,1.16,0,0,0,67.94,80.29Z" transform="translate(-0.6)"/><path class="cls-4" d="M48.05,81a5,5,0,1,0-4.78-5A4.86,4.86,0,0,0,48.05,81Z" transform="translate(-0.6)"/><path class="cls-4" d="M80.31,81a5,5,0,1,0-4.78-5A4.86,4.86,0,0,0,80.31,81Z" transform="translate(-0.6)"/><path class="cls-7" d="M71.07,90.58c-2.66,1.57-11.36,1.57-14,0a1.59,1.59,0,0,0-2.45,1.86C55.23,93.81,60,97,64.09,97s8.79-3.15,9.41-4.52A1.58,1.58,0,0,0,71.07,90.58Z" transform="translate(-0.6)"/></svg>